<svg width="17" height="16" viewBox="0 0 17 16" fill="none" xmlns="http://www.w3.org/2000/svg">
<path d="M15.0521 8C15.0521 9.73772 14.3618 11.4043 13.133 12.633C11.9043 13.8618 10.2377 14.5521 8.50002 14.5521V15.6146C12.7054 15.6146 16.1146 12.2054 16.1146 8H15.0521ZM8.50002 14.5521C6.7623 14.5521 5.09575 13.8618 3.867 12.633C2.63824 11.4043 1.94794 9.73772 1.94794 8H0.885437C0.885437 12.2054 4.29465 15.6146 8.50002 15.6146V14.5521ZM1.94794 8C1.94794 6.26228 2.63824 4.59573 3.867 3.36697C5.09575 2.13822 6.7623 1.44791 8.50002 1.44791V0.385414C4.29465 0.385414 0.885437 3.79462 0.885437 8H1.94794ZM10.9792 9.59375C9.89898 9.59375 8.86302 9.16464 8.0992 8.40082C7.33538 7.637 6.90627 6.60104 6.90627 5.52083H5.84377C5.84377 6.88283 6.38482 8.18904 7.3479 9.15212C8.31098 10.1152 9.61719 10.6562 10.9792 10.6562V9.59375ZM14.4677 7.62387C14.1055 8.22519 13.5939 8.72259 12.9826 9.06776C12.3713 9.41293 11.6812 9.59412 10.9792 9.59375V10.6562C11.8642 10.6567 12.7343 10.4284 13.5051 9.99335C14.2758 9.55834 14.921 8.93145 15.3779 8.17354L14.4677 7.62387ZM6.90627 5.52083C6.90596 4.81885 7.08719 4.12872 7.43235 3.51746C7.77751 2.9062 8.27488 2.39458 8.87615 2.03229L8.32648 1.12279C7.56862 1.57966 6.94176 2.22471 6.50675 2.99532C6.07174 3.76593 5.84335 4.63592 5.84377 5.52083H6.90627ZM8.50002 1.44791C8.42819 1.44622 8.35994 1.41617 8.31019 1.36433C8.27977 1.33475 8.25944 1.29633 8.2521 1.25454C8.24927 1.23258 8.25069 1.16883 8.32648 1.12279L8.87615 2.03229C9.23244 1.81696 9.34719 1.42241 9.3054 1.11216C9.26148 0.789872 9.0079 0.385414 8.50002 0.385414V1.44791ZM15.3779 8.17354C15.3312 8.24933 15.2674 8.25075 15.2455 8.24791C15.2037 8.24057 15.1653 8.22025 15.1357 8.18983C15.0838 8.14008 15.0538 8.07183 15.0521 8H16.1146C16.1146 7.49212 15.7101 7.23854 15.3879 7.19462C15.0776 7.15283 14.6831 7.26758 14.4677 7.62387L15.3779 8.17354Z" fill="black"/>
</svg>
