<svg width="18" height="17" viewBox="0 0 18 17" fill="none" xmlns="http://www.w3.org/2000/svg">
<path d="M8.4375 2.3125V0.625C8.4375 0.475816 8.49676 0.332742 8.60225 0.227252C8.70774 0.121763 8.85082 0.0625 9 0.0625C9.14918 0.0625 9.29226 0.121763 9.39775 0.227252C9.50324 0.332742 9.5625 0.475816 9.5625 0.625V2.3125C9.5625 2.46168 9.50324 2.60476 9.39775 2.71025C9.29226 2.81574 9.14918 2.875 9 2.875C8.85082 2.875 8.70774 2.81574 8.60225 2.71025C8.49676 2.60476 8.4375 2.46168 8.4375 2.3125ZM13.5 8.5C13.5 9.39002 13.2361 10.26 12.7416 11.0001C12.2471 11.7401 11.5443 12.3169 10.7221 12.6575C9.89981 12.9981 8.99501 13.0872 8.12209 12.9135C7.24918 12.7399 6.44736 12.3113 5.81802 11.682C5.18868 11.0526 4.7601 10.2508 4.58647 9.37791C4.41283 8.50499 4.50195 7.60019 4.84254 6.77792C5.18314 5.95566 5.75991 5.25285 6.49993 4.75839C7.23995 4.26392 8.10998 4 9 4C10.1931 4.0013 11.3369 4.47583 12.1805 5.31946C13.0242 6.16309 13.4987 7.30693 13.5 8.5ZM12.375 8.5C12.375 7.83249 12.1771 7.17997 11.8062 6.62495C11.4354 6.06993 10.9083 5.63735 10.2916 5.38191C9.67486 5.12646 8.99626 5.05962 8.34157 5.18985C7.68688 5.32008 7.08552 5.64151 6.61351 6.11351C6.14151 6.58552 5.82008 7.18688 5.68985 7.84157C5.55962 8.49626 5.62646 9.17486 5.88191 9.79156C6.13735 10.4083 6.56993 10.9354 7.12495 11.3062C7.67997 11.6771 8.33249 11.875 9 11.875C9.89482 11.8741 10.7527 11.5182 11.3855 10.8855C12.0182 10.2527 12.3741 9.39482 12.375 8.5ZM4.10203 4.39797C4.20758 4.50352 4.35073 4.56281 4.5 4.56281C4.64927 4.56281 4.79242 4.50352 4.89797 4.39797C5.00352 4.29242 5.06281 4.14927 5.06281 4C5.06281 3.85073 5.00352 3.70758 4.89797 3.60203L3.77297 2.47703C3.66742 2.37148 3.52427 2.31219 3.375 2.31219C3.22573 2.31219 3.08258 2.37148 2.97703 2.47703C2.87148 2.58258 2.81219 2.72573 2.81219 2.875C2.81219 3.02427 2.87148 3.16742 2.97703 3.27297L4.10203 4.39797ZM4.10203 12.602L2.97703 13.727C2.87148 13.8326 2.81219 13.9757 2.81219 14.125C2.81219 14.2743 2.87148 14.4174 2.97703 14.523C3.08258 14.6285 3.22573 14.6878 3.375 14.6878C3.52427 14.6878 3.66742 14.6285 3.77297 14.523L4.89797 13.398C4.95023 13.3457 4.99169 13.2837 5.01997 13.2154C5.04826 13.1471 5.06281 13.0739 5.06281 13C5.06281 12.9261 5.04826 12.8529 5.01997 12.7846C4.99169 12.7163 4.95023 12.6543 4.89797 12.602C4.84571 12.5498 4.78366 12.5083 4.71538 12.48C4.6471 12.4517 4.57391 12.4372 4.5 12.4372C4.42609 12.4372 4.3529 12.4517 4.28462 12.48C4.21634 12.5083 4.15429 12.5498 4.10203 12.602ZM13.5 4.5625C13.5739 4.56256 13.6471 4.54806 13.7154 4.51983C13.7836 4.4916 13.8457 4.45019 13.898 4.39797L15.023 3.27297C15.1285 3.16742 15.1878 3.02427 15.1878 2.875C15.1878 2.72573 15.1285 2.58258 15.023 2.47703C14.9174 2.37148 14.7743 2.31219 14.625 2.31219C14.4757 2.31219 14.3326 2.37148 14.227 2.47703L13.102 3.60203C13.0233 3.6807 12.9696 3.78097 12.9479 3.89014C12.9261 3.99931 12.9373 4.11248 12.9799 4.21532C13.0225 4.31816 13.0947 4.40604 13.1873 4.46784C13.2798 4.52964 13.3887 4.56259 13.5 4.5625ZM13.898 12.602C13.7924 12.4965 13.6493 12.4372 13.5 12.4372C13.3507 12.4372 13.2076 12.4965 13.102 12.602C12.9965 12.7076 12.9372 12.8507 12.9372 13C12.9372 13.1493 12.9965 13.2924 13.102 13.398L14.227 14.523C14.2793 14.5752 14.3413 14.6167 14.4096 14.645C14.4779 14.6733 14.5511 14.6878 14.625 14.6878C14.6989 14.6878 14.7721 14.6733 14.8404 14.645C14.9087 14.6167 14.9707 14.5752 15.023 14.523C15.0752 14.4707 15.1167 14.4087 15.145 14.3404C15.1733 14.2721 15.1878 14.1989 15.1878 14.125C15.1878 14.0511 15.1733 13.9779 15.145 13.9096C15.1167 13.8413 15.0752 13.7793 15.023 13.727L13.898 12.602ZM3.375 8.5C3.375 8.35082 3.31574 8.20774 3.21025 8.10225C3.10476 7.99676 2.96168 7.9375 2.8125 7.9375H1.125C0.975816 7.9375 0.832742 7.99676 0.727252 8.10225C0.621763 8.20774 0.5625 8.35082 0.5625 8.5C0.5625 8.64918 0.621763 8.79226 0.727252 8.89775C0.832742 9.00324 0.975816 9.0625 1.125 9.0625H2.8125C2.96168 9.0625 3.10476 9.00324 3.21025 8.89775C3.31574 8.79226 3.375 8.64918 3.375 8.5ZM9 14.125C8.85082 14.125 8.70774 14.1843 8.60225 14.2898C8.49676 14.3952 8.4375 14.5383 8.4375 14.6875V16.375C8.4375 16.5242 8.49676 16.6673 8.60225 16.7727C8.70774 16.8782 8.85082 16.9375 9 16.9375C9.14918 16.9375 9.29226 16.8782 9.39775 16.7727C9.50324 16.6673 9.5625 16.5242 9.5625 16.375V14.6875C9.5625 14.5383 9.50324 14.3952 9.39775 14.2898C9.29226 14.1843 9.14918 14.125 9 14.125ZM16.875 7.9375H15.1875C15.0383 7.9375 14.8952 7.99676 14.7898 8.10225C14.6843 8.20774 14.625 8.35082 14.625 8.5C14.625 8.64918 14.6843 8.79226 14.7898 8.89775C14.8952 9.00324 15.0383 9.0625 15.1875 9.0625H16.875C17.0242 9.0625 17.1673 9.00324 17.2727 8.89775C17.3782 8.79226 17.4375 8.64918 17.4375 8.5C17.4375 8.35082 17.3782 8.20774 17.2727 8.10225C17.1673 7.99676 17.0242 7.9375 16.875 7.9375Z" fill="#00A3FF"/>
</svg>
